<svg width="84" height="86" viewBox="0 0 84 86" fill="none" xmlns="http://www.w3.org/2000/svg">
<path fill-rule="evenodd" clip-rule="evenodd" d="M50.1317 22.8835C46.713 23.209 48.1817 18.5096 52.2882 18.1188C55.6024 17.8034 54.3138 22.4844 50.1317 22.8835ZM54.5865 33.0802C55.629 35.2793 60.1131 38.0519 61.9426 37.9297C61.7588 36.1524 59.4233 30.9153 57.785 28.7433C57.9148 28.6227 58.0472 28.5073 58.1814 28.3953C61.3775 25.5514 62.0434 24.0184 63.6831 21.0747C64.0671 20.3862 63.8349 19.772 63.5166 19.4621C63.2946 19.246 63.0811 19.1448 62.8068 19.0227C58.7928 17.2348 57.3783 15.5078 53.4332 15.8616C47.6706 16.3793 41.2902 21.094 38.2444 21.3675C34.7115 21.6841 31.5797 18.361 28.5232 16.7558C26.552 15.7211 25.8163 15.5291 25.2395 15.6114C25.8285 17.2141 29.8982 20.2051 30.6881 24.0186C31.1464 26.2345 30.8619 27.3903 30.647 28.5367C32.187 27.114 33.99 24.3188 35.1991 24.0519C34.2692 25.1085 31.4519 28.6607 30.5868 30.1568C24.2698 41.0665 23.407 52.1496 27.1693 65.7468C28.0691 69.001 29.9238 73.2285 29.3001 75.6875C28.4931 78.8711 28.7379 81.593 29.9215 85.4241C30.4869 83.8471 31.2655 82.5818 31.9192 81.7011C32.8907 80.3914 33.2501 78.5315 33.2719 77.9306C34.3606 78.9005 35.0918 78.7457 36.1463 79.6051C36.3021 75.6312 32.9746 73.4121 32.5697 71.286C30.0897 58.3104 38.2584 50.4372 41.6044 47.4538C43.1131 46.1079 44.621 45.3456 45.9517 44.3422C47.6297 43.0767 49.0952 41.5555 50.7204 39.4085C51.7487 38.0501 52.4424 36.7241 53.3339 35.1343C53.735 34.4175 54.1504 33.6631 54.5903 33.0804L54.5865 33.0802ZM50.2982 39.3099C51.6384 37.5363 52.5433 35.5255 53.4271 33.9461C56.6854 28.3883 58.6463 28.3376 61.4918 23.6738C61.8937 23.013 63.108 21.462 63.4166 21.0115C63.6538 20.6647 63.6524 20.273 63.5262 20.1098C63.4217 19.9746 63.1973 20.1717 63.0924 20.2319C61.5558 21.1562 58.3596 21.3787 56.5112 21.773C52.8173 22.56 51.1763 26.4172 51.5146 28.3258C52.2611 32.5452 51.993 33.6711 50.3675 36.8135C50.0112 37.5052 47.301 41.0851 45.7702 41.5989C44.4376 38.258 46.2636 34.0937 47.0245 32.4666C44.5618 34.5604 43.8901 42.0657 41.1269 42.3574C38.1526 42.6724 35.1709 38.7305 31.0596 42.3546C28.9932 44.1764 28.1742 48.3073 28.9764 52.5048C30.0903 58.3296 34.761 53.7496 35.4683 51.1741C36.0265 49.1433 35.5374 46.3945 38.1739 45.9313C38.8405 45.8138 40.8762 45.8659 42.916 45.2025C45.1325 44.4813 48.6713 41.4643 50.2976 39.3124L50.2982 39.3099Z" fill="#141414"/>
</svg>
