<svg width="24" height="24" viewBox="0 0 24 24" fill="none" xmlns="http://www.w3.org/2000/svg">
<path d="M24 12.0733C24 5.4054 18.6274 0 12 0C5.37256 0 0 5.40543 0 12.0733C0 18.0995 4.38823 23.0943 10.125 24V15.5633H7.07812V12.0733H10.125V9.41338C10.125 6.38752 11.9165 4.71609 14.6576 4.71609C15.9705 4.71609 17.3438 4.9519 17.3438 4.9519V7.92308H15.8306C14.3399 7.92308 13.875 8.85373 13.875 9.80852V12.0733H17.2031L16.6711 15.5633H13.875V24C19.6118 23.0943 24 18.0995 24 12.0733H24Z" fill="#141414"/>
</svg>
