<svg width="24" height="24" viewBox="0 0 24 24" fill="none" xmlns="http://www.w3.org/2000/svg">
<path d="M12 0C8.741 0 8.33234 0.0138044 7.05243 0.0722132C5.77516 0.130463 4.90283 0.333338 4.13952 0.62996C3.35041 0.936621 2.68121 1.34694 2.01408 2.01405C1.34696 2.68121 0.936641 3.35043 0.62998 4.13954C0.333348 4.90282 0.130483 5.77516 0.0722033 7.05243C0.0138144 8.33233 0 8.74099 0 12C0 15.259 0.0138044 15.6677 0.0722033 16.9476C0.130483 18.2248 0.333348 19.0972 0.62998 19.8605C0.936641 20.6496 1.34696 21.3188 2.01408 21.9859C2.68122 22.6531 3.35042 23.0634 4.13952 23.37C4.90283 23.6667 5.77516 23.8695 7.05243 23.9278C8.33233 23.9862 8.74099 24 12 24C15.259 24 15.6677 23.9862 16.9476 23.9278C18.2248 23.8695 19.0972 23.6667 19.8605 23.37C20.6496 23.0634 21.3188 22.6531 21.9859 21.9859C22.6531 21.3188 23.0634 20.6496 23.37 19.8605C23.6667 19.0972 23.8695 18.2248 23.9278 16.9476C23.9862 15.6677 24 15.259 24 12C24 8.741 23.9862 8.33234 23.9278 7.05243C23.8695 5.77516 23.6667 4.90282 23.37 4.13954C23.0634 3.35043 22.6531 2.68122 21.9859 2.01405C21.3188 1.34694 20.6496 0.936621 19.8605 0.62996C19.0972 0.333328 18.2248 0.130463 16.9476 0.0722132C15.6677 0.0138044 15.259 0 12 0V0ZM12 2.16215C15.2041 2.16215 15.5837 2.1744 16.849 2.23215C18.019 2.28549 18.6544 2.48098 19.0773 2.64532C19.6374 2.863 20.0371 3.12304 20.457 3.54293C20.877 3.96287 21.137 4.36261 21.3547 4.92275C21.519 5.34559 21.7145 5.98098 21.7679 7.15097C21.8256 8.41633 21.8379 8.79588 21.8379 12C21.8379 15.2041 21.8256 15.5837 21.7679 16.849C21.7145 18.019 21.519 18.6544 21.3547 19.0773C21.137 19.6374 20.877 20.0371 20.457 20.457C20.0371 20.877 19.6374 21.137 19.0773 21.3547C18.6544 21.519 18.019 21.7145 16.849 21.7679C15.5839 21.8256 15.2044 21.8379 12 21.8379C8.79562 21.8379 8.41618 21.8256 7.15098 21.7679C5.98098 21.7145 5.34558 21.519 4.92275 21.3547C4.36261 21.137 3.96287 20.877 3.54297 20.457C3.12306 20.0371 2.86299 19.6374 2.64531 19.0773C2.48096 18.6544 2.28551 18.019 2.23212 16.849C2.17437 15.5837 2.16214 15.2041 2.16214 12C2.16214 8.79588 2.17437 8.41632 2.23212 7.15097C2.28551 5.98098 2.48096 5.34559 2.64531 4.92275C2.86299 4.36261 3.12305 3.96287 3.54295 3.54297C3.96286 3.12303 4.3626 2.86299 4.92274 2.64531C5.34558 2.48096 5.98097 2.28548 7.15097 2.23214C8.41631 2.17439 8.79587 2.16214 12 2.16214L12 2.16215Z" fill="#141414"/>
<path d="M12.0001 16.0001C9.79091 16.0001 8.00006 14.2092 8.00006 12.0001C8.00006 9.79092 9.79091 8.00006 12.0001 8.00006C14.2092 8.00006 16 9.79092 16 12.0001C16 14.2092 14.2092 16.0001 12.0001 16.0001ZM12.0001 5.83789C8.59677 5.83789 5.83789 8.59677 5.83789 12.0001C5.83789 15.4033 8.59677 18.1622 12.0001 18.1622C15.4033 18.1622 18.1622 15.4033 18.1622 12.0001C18.1622 8.59677 15.4033 5.83789 12.0001 5.83789Z" fill="#141414"/>
<path d="M19.8456 5.59433C19.8456 6.38963 19.2009 7.03429 18.4055 7.03429C17.6103 7.03429 16.9656 6.38963 16.9656 5.59433C16.9656 4.79902 17.6103 4.1543 18.4055 4.1543C19.2008 4.1543 19.8456 4.79901 19.8456 5.59433Z" fill="#141414"/>
</svg>
