<svg width="290" height="49" viewBox="0 0 290 49" fill="none" xmlns="http://www.w3.org/2000/svg">
<path d="M9.18803 48.3475H13.3307V38.5104L22.448 24.4742H17.7892L11.2632 35.1003L4.65757 24.4742H0L9.18803 38.5094V48.3475ZM49.4907 48.3475H54.2962L45.064 24.4742H39.1763L29.9086 48.3475H34.7168L36.3021 44.0974H47.9434L49.4907 48.3475ZM46.9126 40.6091H37.3287L42.1204 27.4329L46.9126 40.6091ZM81.6865 48.3475H86.7287L76.5231 35.6271L85.9999 24.4742H80.9964L71.1884 35.6766V24.4742H67.0457V48.3475H71.1884V41.0245L73.5499 38.2189L81.6865 48.3475ZM115.441 48.1267C116.765 47.686 117.876 47.0276 118.771 46.1531C119.67 45.2748 120.344 44.2382 120.793 43.0453C121.247 41.8383 121.475 40.46 121.475 38.9116V24.4742H117.219V38.7614C117.219 39.7316 117.08 40.6096 116.801 41.3934C116.518 42.1917 116.091 42.8899 115.522 43.4849C114.946 44.0859 114.251 44.537 113.436 44.8355C112.641 45.1267 111.736 45.2729 110.722 45.2729C109.708 45.2729 108.801 45.1267 108.003 44.8355C107.187 44.5377 106.487 44.0874 105.906 43.4874C104.76 42.3041 104.187 40.728 104.187 38.7614V24.4742H99.9686V38.949C99.9686 40.4702 100.196 41.8306 100.65 43.0288C101.1 44.2153 101.775 45.2511 102.673 46.1341C103.569 47.0154 104.68 47.6788 106.002 48.1219C107.349 48.573 108.922 48.7988 110.722 48.7988C112.522 48.7988 114.095 48.5743 115.441 48.1267ZM139.084 47.8424C140.786 48.4798 142.722 48.7988 144.89 48.7988C146.471 48.7988 147.856 48.6222 149.046 48.27C150.21 47.9256 151.191 47.4113 151.986 46.7291C152.778 46.0492 153.372 45.2636 153.766 44.3751C154.162 43.4829 154.36 42.4763 154.36 41.3567C154.36 40.1375 154.09 38.97 153.391 37.9551C152.29 36.3555 151.077 35.8547 149.325 35.19C147.053 34.3282 144.786 34.0677 142.598 33.3126C141.388 32.8952 139.903 32.1519 139.903 30.6749C139.903 29.1072 140.983 28.1118 142.438 27.7391C144.182 27.2925 146.668 27.6587 148.313 28.2752C149.403 28.6836 150.41 29.2663 151.33 30.0214L153.579 27.0725C152.47 26.1428 151.223 25.4304 149.838 24.9368C148.27 24.3778 146.519 24.098 144.589 24.098C142.222 24.098 139.88 24.5961 138.036 26.154C136.444 27.4984 135.647 29.1564 135.647 31.1262C135.647 32.3462 135.907 33.5287 136.614 34.5418C137.717 36.1227 138.932 36.6135 140.679 37.2522C143.163 38.1615 146.655 38.4165 148.781 39.7541C149.687 40.3241 150.142 41.0602 150.142 41.9579C150.142 43.0163 149.577 43.8343 148.732 44.4281C147.708 45.1465 146.382 45.3483 145.155 45.3483C143.49 45.3483 141.95 45.0488 140.538 44.4518C139.34 43.9447 138.237 43.2226 137.233 42.2867L135.042 45.3483C136.207 46.4381 137.555 47.2699 139.084 47.8424ZM185.368 48.3475H189.548V24.4742H185.368V34.328H172.26V24.4742H168.117V48.3475H172.26V37.8163H185.368V48.3475ZM204.626 48.3475H221.226V44.8592H208.769V37.9664H220.961V34.4786H208.769V27.9622H221.226V24.4742H204.626V48.3475ZM242.414 48.3475H248.302L257.534 24.4742H252.729L245.359 44.9466L237.95 24.4742H233.146L242.414 48.3475ZM285.195 48.3475H290L280.768 24.4742H274.88L265.612 48.3475H270.421L272.006 44.0974H283.647L285.195 48.3475ZM282.616 40.6091H273.032L277.824 27.4329L282.616 40.6091Z" fill="white"/>
<path d="M9.18803 48.347H13.3307V38.51L22.448 24.4738H17.7892L11.2632 35.0999L4.65757 24.4738H0L9.18803 38.509V48.347ZM141.364 24.4738H148.224C148.782 24.5974 149.32 24.7518 149.838 24.9364C151.223 25.4299 152.47 26.1423 153.579 27.072L151.33 30.021C150.41 29.2659 149.403 28.6831 148.313 28.2747C146.668 27.6583 144.182 27.2921 142.438 27.7387C140.983 28.1114 139.903 29.1068 139.903 30.6744C139.903 32.1514 141.388 32.8948 142.598 33.3122C144.786 34.0673 147.053 34.3278 149.325 35.1896C151.077 35.8542 152.29 36.3551 153.391 37.9547C154.09 38.9696 154.36 40.1371 154.36 41.3563C154.36 42.4758 154.162 43.4824 153.766 44.3747C153.372 45.2632 152.778 46.0487 151.986 46.7287C151.191 47.4108 150.21 47.9251 149.046 48.2696C147.856 48.6218 146.471 48.7984 144.89 48.7984C142.722 48.7984 140.786 48.4794 139.084 47.842C137.555 47.2694 136.207 46.4377 135.042 45.3478L137.233 42.2862C138.237 43.2222 139.34 43.9443 140.538 44.4514C141.95 45.0484 143.49 45.3478 145.155 45.3478C146.382 45.3478 147.708 45.146 148.732 44.4276C149.577 43.8339 150.142 43.0158 150.142 41.9575C150.142 41.0598 149.687 40.3237 148.781 39.7536C146.655 38.416 143.163 38.161 140.679 37.2518C138.932 36.6131 137.717 36.1223 136.614 34.5414C135.907 33.5282 135.647 32.3458 135.647 31.1258C135.647 29.156 136.444 27.4979 138.036 26.1536C139.026 25.317 140.16 24.786 141.364 24.4738ZM49.4907 48.347H54.2962L45.064 24.4738H39.1763L29.9086 48.347H34.7168L36.3021 44.0969H47.9434L49.4907 48.347ZM46.9126 40.6087H37.3287L42.1204 27.4325L46.9126 40.6087ZM81.6865 48.347H86.7287L76.5231 35.6267L85.9999 24.4738H80.9964L71.1884 35.6761V24.4738H67.0457V48.347H71.1884V41.0241L73.5499 38.2185L81.6865 48.347ZM115.441 48.1262C116.765 47.6856 117.876 47.0272 118.771 46.1527C119.67 45.2744 120.344 44.2378 120.793 43.0448C121.247 41.8379 121.475 40.4595 121.475 38.9111V24.4738H117.219V38.761C117.219 39.7312 117.08 40.6092 116.801 41.393C116.518 42.1913 116.091 42.8895 115.522 43.4844C114.946 44.0854 114.251 44.5365 113.436 44.835C112.641 45.1263 111.736 45.2724 110.722 45.2724C109.708 45.2724 108.801 45.1263 108.003 44.835C107.187 44.5373 106.487 44.0869 105.906 43.4869C104.76 42.3037 104.187 40.7276 104.187 38.761V24.4738H99.9686V38.9486C99.9686 40.4698 100.196 41.8301 100.65 43.0283C101.1 44.2148 101.775 45.2507 102.673 46.1337C103.569 47.0149 104.68 47.6783 106.002 48.1215C107.349 48.5726 108.922 48.7984 110.722 48.7984C112.522 48.7984 114.095 48.5738 115.441 48.1262ZM185.368 48.347H189.548V24.4738H185.368V34.3276H172.26V24.4738H168.117V48.347H172.26V37.8158H185.368V48.347ZM204.626 48.347H221.226V44.8588H208.769V37.9659H220.961V34.4782H208.769V27.9618H221.226V24.4738H204.626V48.347ZM242.414 48.347H248.302L257.534 24.4738H252.729L245.359 44.9462L237.95 24.4738H233.146L242.414 48.347ZM285.195 48.347H290L280.768 24.4738H274.88L265.612 48.347H270.421L272.006 44.0969H283.647L285.195 48.347ZM282.616 40.6087H273.032L277.824 27.4325L282.616 40.6087Z" fill="white"/>
<path fill-rule="evenodd" clip-rule="evenodd" d="M253.951 24.4737H256.733L247.069 0.595459H243.718L234.088 24.4737H236.872L239.051 19.0261H251.771L253.951 24.4737ZM251.115 16.9747H239.668L245.412 2.50732L251.115 16.9747Z" fill="#141414"/>
<path fill-rule="evenodd" clip-rule="evenodd" d="M218.834 24.4737H221.225V0.595459H218.834V24.4737Z" fill="#141414"/>
<path fill-rule="evenodd" clip-rule="evenodd" d="M199.902 24.4737H202.711L196.093 14.5095L196.663 14.4628C197.522 14.3926 198.312 14.1908 199.032 13.8583C199.752 13.5259 200.406 13.0608 200.993 12.4645C202.159 11.2798 202.742 9.67667 202.742 7.6569C202.742 6.58107 202.572 5.6159 202.232 4.76238C201.894 3.91386 201.384 3.168 200.705 2.5263C200.025 1.8836 199.242 1.40152 198.357 1.08029C197.465 0.75732 196.466 0.595459 195.359 0.595459H185.796V24.4737H188.187V14.7196H193.622L199.902 24.4737ZM197.084 12.3516C196.454 12.5872 195.755 12.7051 194.99 12.7051H188.187V2.6457H194.99C195.756 2.6457 196.454 2.76185 197.082 2.9934C197.717 3.22695 198.28 3.5784 198.77 4.047C199.75 4.98444 200.241 6.18841 200.241 7.6569C200.241 8.38577 200.119 9.0537 199.874 9.65918C199.629 10.2672 199.26 10.8092 198.771 11.284C198.282 11.7579 197.719 12.1143 197.084 12.3516Z" fill="#141414"/>
<path fill-rule="evenodd" clip-rule="evenodd" d="M155.526 24.0397C155.94 24.2091 156.369 24.3537 156.812 24.4738H163.81C164.251 24.3537 164.678 24.2091 165.092 24.0397C166.515 23.4572 167.78 22.5815 168.886 21.4145C169.994 20.2442 170.825 18.9226 171.378 17.4511C171.933 15.9759 172.21 14.3428 172.21 12.5528C172.21 10.7631 171.933 9.13001 171.378 7.65477C170.825 6.18304 169.994 4.86142 168.886 3.69093C167.78 2.52368 166.515 1.64843 165.092 1.06593C163.666 0.482429 162.075 0.19043 160.32 0.19043C158.553 0.19043 156.955 0.482429 155.526 1.06593C154.1 1.64843 152.837 2.52368 151.737 3.69093C150.635 4.86067 149.808 6.18254 149.258 7.65477C148.707 9.13001 148.43 10.7634 148.43 12.5528C148.43 14.3423 148.707 15.9759 149.258 17.4511C149.808 18.9231 150.635 20.2447 151.737 21.4145C152.837 22.5817 154.1 23.4572 155.526 24.0397ZM167.129 19.9345C165.4 21.8876 163.129 22.8645 160.32 22.8645C157.486 22.8645 155.209 21.8871 153.491 19.933C151.785 17.9919 150.932 15.5315 150.932 12.5528C150.932 11.0561 151.145 9.69128 151.569 8.45883C151.996 7.22289 152.637 6.12059 153.492 5.15367C154.35 4.183 155.351 3.45413 156.494 2.9678C157.633 2.48371 158.909 2.24092 160.32 2.24092C161.72 2.24092 162.988 2.48371 164.124 2.9678C165.261 3.45338 166.263 4.182 167.129 5.15242C167.989 6.11559 168.635 7.21865 169.066 8.45883C169.495 9.69352 169.709 11.0584 169.709 12.5528C169.709 14.0348 169.495 15.3924 169.066 16.6233C168.636 17.8588 167.99 18.9633 167.129 19.9345Z" fill="#141414"/>
<path fill-rule="evenodd" clip-rule="evenodd" d="M127.093 24.4737H129.484V2.6457H137.315V0.595459H119.298V2.6457H127.093V24.4737Z" fill="#141414"/>
<path fill-rule="evenodd" clip-rule="evenodd" d="M92.9944 24.051C93.4128 24.2153 93.843 24.3562 94.2852 24.4738H101.074C101.715 24.2875 102.33 24.0427 102.917 23.7387C104.335 23.0046 105.599 21.9248 106.707 20.5005L104.692 19.3977C104.359 19.8601 103.981 20.2827 103.557 20.6646C103.055 21.1165 102.491 21.5119 101.866 21.8481C101.238 22.1866 100.586 22.4411 99.9127 22.6102C99.2393 22.7795 98.5432 22.8645 97.8269 22.8645C96.4283 22.8645 95.1425 22.6207 93.9711 22.1341C92.7986 21.6475 91.7427 20.9169 90.8054 19.945C88.9322 18.0019 87.9951 15.538 87.9951 12.5528C87.9951 11.0651 88.229 9.70501 88.6963 8.47282C89.1646 7.23713 89.8685 6.13258 90.8054 5.16116C91.7432 4.18825 92.7986 3.45813 93.9711 2.97129C95.1425 2.48471 96.4283 2.24092 97.8269 2.24092C98.5412 2.24092 99.2376 2.32785 99.9139 2.5012C100.59 2.6743 101.242 2.93308 101.868 3.27678C102.494 3.62074 103.058 4.0164 103.557 4.46301C103.981 4.84319 104.359 5.25808 104.689 5.7077L106.678 4.60314C105.612 3.17812 104.374 2.09854 102.963 1.36542C101.456 0.582343 99.7437 0.19043 97.8269 0.19043C96.0716 0.19043 94.4612 0.478433 92.9956 1.05494C91.5321 1.62994 90.2095 2.4937 89.0305 3.64497C87.8512 4.79598 86.9671 6.1121 86.3784 7.59183C85.7891 9.07705 85.4935 10.7311 85.4935 12.5528C85.4935 14.3775 85.7888 16.0316 86.3782 17.5136C86.9668 18.9935 87.8512 20.3097 89.0305 21.4609C90.21 22.6119 91.5321 23.4757 92.9944 24.051Z" fill="#141414"/>
<path fill-rule="evenodd" clip-rule="evenodd" d="M67.0469 24.4737H69.4377V0.595459H67.0469V24.4737Z" fill="#141414"/>
<path fill-rule="evenodd" clip-rule="evenodd" d="M40.4608 24.4737H43.8115L53.4766 0.595459H50.6965L42.1545 22.384L33.6124 0.595459H30.8315L40.4608 24.4737Z" fill="#141414"/>
</svg>
